{
    "asset" : {
        "generator" : "Khronos glTF Blender I/O v1.8.19",
        "version" : "2.0"
    },
    "scene" : 0,
    "scenes" : [
        {
            "name" : "Scene",
            "nodes" : [
                7
            ]
        }
    ],
    "nodes" : [
        {
            "name" : "Bone.005",
            "rotation" : [
                -0.05004417896270752,
                -0.0004937014309689403,
                0.0030183913186192513,
                0.9987423419952393
            ],
            "scale" : [
                1,
                1,
                1.0000001192092896
            ],
            "translation" : [
                1.7499517731157238e-14,
                0.7423883676528931,
                5.218850773758277e-08
            ]
        },
        {
            "children" : [
                0
            ],
            "name" : "Bone.002",
            "rotation" : [
                -0.1868440955877304,
                -0.44450998306274414,
                -0.07757403701543808,
                0.8726297616958618
            ],
            "scale" : [
                0.9999999403953552,
                0.9999999403953552,
                1
            ],
            "translation" : [
                9.313227966600834e-10,
                0.9043453931808472,
                -2.994891001861788e-09
            ]
        },
        {
            "children" : [
                1
            ],
            "name" : "Bone.001",
            "rotation" : [
                -0.001348852296359837,
                0.996540367603302,
                -0.08306342363357544,
                0.0024346953723579645
            ],
            "scale" : [
                0.9999999403953552,
                1.0000001192092896,
                1
            ],
            "translation" : [
                1.6734107843315678e-15,
                1.086276650428772,
                -9.54150980447821e-10
            ]
        },
        {
            "name" : "Bone.003",
            "rotation" : [
                -0.6209475994110107,
                -0.5990480184555054,
                -0.07331264764070511,
                0.5001909136772156
            ],
            "scale" : [
                1.000000238418579,
                1.0000001192092896,
                1.0000001192092896
            ],
            "translation" : [
                0.2808980941772461,
                0.9403447508811951,
                -0.12864547967910767
            ]
        },
        {
            "name" : "Bone.004",
            "rotation" : [
                -0.6380979418754578,
                0.4846610128879547,
                0.23681750893592834,
                0.549410879611969
            ],
            "scale" : [
                1.0000001192092896,
                0.9999999403953552,
                0.9999999403953552
            ],
            "translation" : [
                -0.25935667753219604,
                0.9577977657318115,
                -0.1292915642261505
            ]
        },
        {
            "children" : [
                2,
                3,
                4
            ],
            "name" : "Bone",
            "rotation" : [
                0.4203636348247528,
                9.679346391067156e-08,
                4.48419541498879e-08,
                0.9073557257652283
            ],
            "scale" : [
                1,
                1.0000001192092896,
                1.0000001192092896
            ],
            "translation" : [
                -3.984763630171528e-09,
                -1.1907896995544434,
                -0.1719525009393692
            ]
        },
        {
            "mesh" : 0,
            "name" : "orca",
            "skin" : 0
        },
        {
            "children" : [
                6,
                5
            ],
            "name" : "Armature.001",
            "rotation" : [
                -0.7193397283554077,
                0,
                0,
                0.6946584582328796
            ],
            "scale" : [
                2.6016106605529785,
                2.6016106605529785,
                2.6016106605529785
            ],
            "translation" : [
                0,
                -0.12034916877746582,
                3.479184865951538
            ]
        }
    ],
    "materials" : [
        {
            "doubleSided" : true,
            "name" : "whale",
            "pbrMetallicRoughness" : {}
        }
    ],
    "meshes" : [
        {
            "name" : "orca",
            "primitives" : [
                {
                    "attributes" : {
                        "POSITION" : 0,
                        "NORMAL" : 1,
                        "TEXCOORD_0" : 2,
                        "JOINTS_0" : 3,
                        "WEIGHTS_0" : 4
                    },
                    "indices" : 5,
                    "material" : 0
                }
            ]
        }
    ],
    "skins" : [
        {
            "inverseBindMatrices" : 6,
            "joints" : [
                5,
                2,
                1,
                0,
                3,
                4
            ],
            "name" : "Armature.001"
        }
    ],
    "accessors" : [
        {
            "bufferView" : 0,
            "componentType" : 5126,
            "count" : 2047,
            "max" : [
                2.3011670112609863,
                2.933537244796753,
                3.3537864685058594
            ],
            "min" : [
                -2.3011670112609863,
                -0.96541428565979,
                -6.518695831298828
            ],
            "type" : "VEC3"
        },
        {
            "bufferView" : 1,
            "componentType" : 5126,
            "count" : 2047,
            "type" : "VEC3"
        },
        {
            "bufferView" : 2,
            "componentType" : 5126,
            "count" : 2047,
            "type" : "VEC2"
        },
        {
            "bufferView" : 3,
            "componentType" : 5121,
            "count" : 2047,
            "type" : "VEC4"
        },
        {
            "bufferView" : 4,
            "componentType" : 5126,
            "count" : 2047,
            "type" : "VEC4"
        },
        {
            "bufferView" : 5,
            "componentType" : 5123,
            "count" : 11994,
            "type" : "SCALAR"
        },
        {
            "bufferView" : 6,
            "componentType" : 5126,
            "count" : 6,
            "type" : "MAT4"
        }
    ],
    "bufferViews" : [
        {
            "buffer" : 0,
            "byteLength" : 24564,
            "byteOffset" : 0
        },
        {
            "buffer" : 0,
            "byteLength" : 24564,
            "byteOffset" : 24564
        },
        {
            "buffer" : 0,
            "byteLength" : 16376,
            "byteOffset" : 49128
        },
        {
            "buffer" : 0,
            "byteLength" : 8188,
            "byteOffset" : 65504
        },
        {
            "buffer" : 0,
            "byteLength" : 32752,
            "byteOffset" : 73692
        },
        {
            "buffer" : 0,
            "byteLength" : 23988,
            "byteOffset" : 106444
        },
        {
            "buffer" : 0,
            "byteLength" : 384,
            "byteOffset" : 130432
        }
    ],
    "buffers" : [
        {
            "byteLength" : 130816,
            "uri" : "scene.bin"
        }
    ]
}
